<?xml version="1.0" encoding="UTF-8" standalone="no"?>
<!-- Created with Inkscape (http://www.inkscape.org/) -->

<svg
   xmlns:dc="http://purl.org/dc/elements/1.1/"
   xmlns:cc="http://creativecommons.org/ns#"
   xmlns:rdf="http://www.w3.org/1999/02/22-rdf-syntax-ns#"
   xmlns:svg="http://www.w3.org/2000/svg"
   xmlns="http://www.w3.org/2000/svg"
   xmlns:sodipodi="http://sodipodi.sourceforge.net/DTD/sodipodi-0.dtd"
   xmlns:inkscape="http://www.inkscape.org/namespaces/inkscape"
   id="svg2"
   sodipodi:version="0.32"
   inkscape:version="0.48.2 r9819"
   width="272.65625"
   height="296.35461"
   version="1.0"
   sodipodi:docname="AJAX.svg"
   inkscape:output_extension="org.inkscape.output.svg.inkscape">
  <metadata
     id="metadata7">
    <rdf:RDF>
      <cc:Work
         rdf:about="">
        <dc:format>image/svg+xml</dc:format>
        <dc:type
           rdf:resource="http://purl.org/dc/dcmitype/StillImage" />
      </cc:Work>
    </rdf:RDF>
  </metadata>
  <defs
     id="defs5">
    <inkscape:perspective
       sodipodi:type="inkscape:persp3d"
       inkscape:vp_x="0 : 150 : 1"
       inkscape:vp_y="0 : 1000 : 0"
       inkscape:vp_z="275 : 150 : 1"
       inkscape:persp3d-origin="137.5 : 100 : 1"
       id="perspective54" />
  </defs>
  <sodipodi:namedview
     inkscape:window-height="1008"
     inkscape:window-width="1280"
     inkscape:pageshadow="2"
     inkscape:pageopacity="0.0"
     guidetolerance="10.0"
     gridtolerance="10.0"
     objecttolerance="10.0"
     borderopacity="1.0"
     bordercolor="#666666"
     pagecolor="#ffffff"
     id="base"
     inkscape:zoom="1.6781818"
     inkscape:cx="122.53213"
     inkscape:cy="157.30711"
     inkscape:window-x="-8"
     inkscape:window-y="-8"
     inkscape:current-layer="svg2"
     showguides="true"
     inkscape:guide-bbox="true"
     width="275px"
     height="300px"
     showgrid="false"
     fit-margin-top="0"
     fit-margin-left="0"
     fit-margin-right="0"
     fit-margin-bottom="0"
     inkscape:window-maximized="0" />
  <path
     style="fill:#e4edf3;fill-opacity:1;fill-rule:evenodd;stroke:#505050;stroke-width:0.91909814;stroke-linecap:butt;stroke-linejoin:miter;stroke-miterlimit:4;stroke-opacity:1;stroke-dasharray:none"
     d="m 120.13028,265.1383 49.96042,-49.96043 c 36.46201,-30.01471 69.43799,-22.67886 102.29051,-14.02051 -30.45233,-22.1419 -64.52753,-31.0392 -106.63489,0 l -59.63655,50.35536 14.02051,13.62558 z"
     id="path16031"
     sodipodi:nodetypes="cccccc"
     inkscape:connector-curvature="0" />
  <path
     style="fill:#ffcc00;fill-opacity:1;fill-rule:evenodd;stroke:#9c6000;stroke-width:0.91909814;stroke-linecap:butt;stroke-linejoin:miter;stroke-miterlimit:4;stroke-opacity:1;stroke-dasharray:none"
     d="m 111.24404,273.23465 -17.969952,18.9573 c -7.82147,6.37325 -15.068155,3.63989 -20.537083,-1.97472 -4.342389,-9.21318 4.589535,-14.68059 11.058424,-11.05842 l 16.785121,-18.16743 c 2.85167,-3.49717 0.94319,-5.09028 -1.3823,-6.51657 l -3.554499,-2.96209 c -4.874956,-6.35799 2.687029,-9.95705 6.121629,-6.31909 l 8.09636,8.68877 41.27165,-31.20059 -33.37277,39.09946 8.68877,6.3191 c 6.76846,5.05972 0.0715,10.3697 -4.73933,6.51659 l -3.75197,-3.15957 c -2.68735,-1.35179 -4.81652,-0.88603 -6.71405,1.77726 z"
     id="path16033"
     sodipodi:nodetypes="ccccccccccccccc"
     inkscape:connector-curvature="0" />
  <g
     id="g3394"
     style="stroke:#9c6000;stroke-opacity:1"
     transform="translate(-1.71875,-2.0872119)">
    <path
       id="path16035"
       d="m 113.54093,266.78704 -5.02682,0 -0.27926,-5.0268"
       style="fill:none;stroke:#9c6000;stroke-width:0.91909814;stroke-linecap:butt;stroke-linejoin:miter;stroke-miterlimit:4;stroke-opacity:1;stroke-dasharray:none"
       inkscape:connector-curvature="0" />
    <path
       id="path16037"
       d="m 106.69887,274.60653 -5.02681,0 -0.27927,-5.02681"
       style="fill:none;stroke:#9c6000;stroke-width:0.91909814;stroke-linecap:butt;stroke-linejoin:miter;stroke-miterlimit:4;stroke-opacity:1;stroke-dasharray:none"
       inkscape:connector-curvature="0" />
    <path
       id="path16039"
       d="m 100.27572,282.42603 -5.026818,0 -0.279266,-5.0268"
       style="fill:none;stroke:#9c6000;stroke-width:0.91909814;stroke-linecap:butt;stroke-linejoin:miter;stroke-miterlimit:4;stroke-opacity:1;stroke-dasharray:none"
       inkscape:connector-curvature="0" />
    <path
       id="path16041"
       d="m 85.614176,281.30896 5.026806,4.74755"
       style="fill:none;stroke:#9c6000;stroke-width:0.91909814;stroke-linecap:butt;stroke-linejoin:miter;stroke-miterlimit:4;stroke-opacity:1;stroke-dasharray:none"
       inkscape:connector-curvature="0" />
  </g>
  <path
     style="fill:none;stroke:#9c6000;stroke-width:1.83819628px;stroke-linecap:butt;stroke-linejoin:miter;stroke-opacity:1"
     d="m 147.77637,225.9401 -32.18794,29.71954"
     id="path16043"
     sodipodi:nodetypes="cc"
     inkscape:connector-curvature="0" />
  <path
     style="fill:#e4edf3;fill-opacity:1;fill-rule:evenodd;stroke:#505050;stroke-width:0.91909814;stroke-linecap:butt;stroke-linejoin:miter;stroke-miterlimit:4;stroke-opacity:1;stroke-dasharray:none"
     d="M 152.50689,265.16196 102.54647,215.20153 C 66.084459,185.18681 33.108498,192.52267 0.2559702,201.18101 c 30.4523268,-22.14189 64.5275288,-31.03919 106.6348898,0 l 59.63655,50.35537 -14.02052,13.62558 z"
     id="path2163"
     sodipodi:nodetypes="cccccc"
     inkscape:connector-curvature="0" />
  <path
     style="fill:#ffcc00;fill-opacity:1;fill-rule:evenodd;stroke:#9c6000;stroke-width:0.91909814;stroke-linecap:butt;stroke-linejoin:miter;stroke-miterlimit:4;stroke-opacity:1;stroke-dasharray:none"
     d="m 161.39314,273.25831 17.96995,18.9573 c 7.82147,6.37325 15.06815,3.63989 20.53708,-1.97472 4.34239,-9.21319 -4.58953,-14.68059 -11.05842,-11.05842 l -16.78513,-18.16743 c -2.85166,-3.49717 -0.94319,-5.09028 1.38231,-6.51657 l 3.5545,-2.96209 c 4.87495,-6.35799 -2.68703,-9.95705 -6.12164,-6.31909 l -8.09635,8.68876 -41.27165,-31.20058 33.37277,39.09946 -8.68877,6.31909 c -6.76846,5.05973 -0.0715,10.36971 4.73933,6.51659 l 3.75197,-3.15956 c 2.68734,-1.35179 4.81652,-0.88603 6.71405,1.77726 z"
     id="path2161"
     sodipodi:nodetypes="ccccccccccccccc"
     inkscape:connector-curvature="0" />
  <g
     id="g3388"
     style="stroke:#9c6000;stroke-opacity:1"
     transform="translate(-1.71875,-2.0872119)">
    <path
       id="path2183"
       d="m 162.53375,266.8107 5.02681,0 0.27927,-5.0268"
       style="fill:none;stroke:#9c6000;stroke-width:0.91909814;stroke-linecap:butt;stroke-linejoin:miter;stroke-miterlimit:4;stroke-opacity:1;stroke-dasharray:none"
       inkscape:connector-curvature="0" />
    <path
       id="path2185"
       d="m 169.3758,274.63019 5.02682,0 0.27927,-5.02681"
       style="fill:none;stroke:#9c6000;stroke-width:0.91909814;stroke-linecap:butt;stroke-linejoin:miter;stroke-miterlimit:4;stroke-opacity:1;stroke-dasharray:none"
       inkscape:connector-curvature="0" />
    <path
       id="path2187"
       d="m 175.79896,282.44969 5.02681,0 0.27927,-5.02681"
       style="fill:none;stroke:#9c6000;stroke-width:0.91909814;stroke-linecap:butt;stroke-linejoin:miter;stroke-miterlimit:4;stroke-opacity:1;stroke-dasharray:none"
       inkscape:connector-curvature="0" />
    <path
       id="path2189"
       d="m 190.4605,281.33262 -5.0268,4.74754"
       style="fill:none;stroke:#9c6000;stroke-width:0.91909814;stroke-linecap:butt;stroke-linejoin:miter;stroke-miterlimit:4;stroke-opacity:1;stroke-dasharray:none"
       inkscape:connector-curvature="0" />
  </g>
  <path
     style="fill:none;stroke:#9c6000;stroke-width:1.83819628px;stroke-linecap:butt;stroke-linejoin:miter;stroke-opacity:1"
     d="m 124.86081,225.96376 32.18794,29.71954"
     id="path14068"
     sodipodi:nodetypes="cc"
     inkscape:connector-curvature="0" />
  <path
     style="fill:#006c35;fill-opacity:1;fill-rule:evenodd;stroke:#001c00;stroke-width:0.91909814;stroke-linecap:butt;stroke-linejoin:miter;stroke-miterlimit:4;stroke-opacity:1;stroke-dasharray:none"
     d="m 141.14428,68.755419 -14.41546,0 c -9.91625,21.432956 -1.69889,24.811342 -3.94944,25.671364 -1.84307,0.700209 -3.68614,0.08951 -5.52921,-0.19747 2.78158,4.165675 6.41969,9.098627 4.14691,10.466017 -2.63296,-0.39494 -3.88361,-0.65824 -4.9368,-3.15955 l -0.59242,11.84832 c -0.77667,2.98813 -3.62875,3.17304 -4.54185,-0.19747 -2.09859,-17.704895 1.572,-34.098608 11.05843,-49.170538 L 119.8173,62.83126 c -3.28677,5.800561 -10.04119,7.594164 -8.29382,23.696643 -1.62641,2.188689 -2.84574,1.934903 -3.94944,0.987359 l -0.59242,24.486528 c -1.1998,2.53566 -2.50253,4.40225 -4.73932,0.19748 L 97.897911,97.388863 c -2.165033,-6.341468 -5.118212,-20.982354 9.478659,-30.805635 4.98473,-3.677197 9.4963,-7.117816 13.4281,-10.268543 l -5.92417,1.579774 c -14.39344,13.206258 -34.474544,17.310224 -31.595518,48.380651 -1.015828,2.29018 -2.580837,3.38541 -4.541856,0.39494 -2.056833,-7.589102 -5.671332,-14.702947 -1.184833,-26.066307 6.08299,-9.927774 13.137783,-16.92835 22.906757,-24.091586 -7.943312,0.990672 -16.088257,0.502677 -22.511812,12.638208 -1.972491,4.122396 -3.483244,3.165661 -4.936801,1.579775 l -2.172191,8.491296 c -2.398525,3.591141 -5.758182,0.412497 -4.344386,-2.764606 1.645601,-3.949441 7.448789,-41.292917 43.44384,-26.658722 4.05631,1.937365 7.76644,1.33901 1.77725,-3.357024 -4.36723,-2.169485 -10.50437,-10.87753 -24.683998,-4.344384 -5.700749,4.913708 -5.415189,-1.805386 -2.172193,-4.146912 -6.291139,2.782682 -12.330347,6.321154 -17.57501,12.243264 -3.333907,2.938962 -5.507978,-0.02124 -4.146914,-2.962082 6.027522,-7.432128 12.996512,-15.365785 29.22586,-15.402815 4.47295,-1.184832 1.748765,-2.369665 0.789888,-3.554498 -14.984114,-3.885756 -16.504679,0.6835 -22.906755,6.71405 -0.906861,1.674149 -4.854265,1.588518 -3.751968,-2.172192 8.601696,-17.175913 40.78489,-21.794199 55.09469,1.579777 1.60509,2.155989 3.61027,0.39742 1.97472,-1.579777 -3.59891,-3.410704 -9.06823,-16.200126 -22.11686,-15.600289 -1.88586,0.166237 -4.617569,-1.67816 -3.15955,-2.962081 -8.030534,-1.792721 -18.430727,1.37863 -26.461255,6.911521 -0.251561,0.712329 -7.63809,1.450633 -6.516577,-2.764609 17.919074,-16.3936614 48.945092,-13.8678308 59.241602,3.159553 -0.82777,-4.205466 1.97456,-10.071027 -7.10899,-11.8483219 -3.01887,-4.0656866 10.46758,-10.29206464 13.4281,-9.08371224 6.5532,1.96556334 5.54358,5.82183394 6.12163,9.28118524 0.47243,2.6121409 1.3424,3.6349829 3.5545,-0.197473 11.60084,-16.2649687 34.56097,-6.6504895 42.45649,-4.1469118 3.70255,2.6131958 3.00295,4.8873277 -0.98738,5.1342727 L 166.61817,8.7239291 c 1.57732,0.763065 2.06415,3.0852829 -0.98736,2.9620799 -8.32171,-1.500438 -13.3821,-0.302909 -16.79174,3.943203 0.0301,0.336172 -0.66973,4.551629 -5.4404,4.079924 -1.71556,0.04573 -3.955,0.869559 -4.7547,3.606245 -0.28753,1.652561 1.09692,2.258572 2.28662,1.430979 8.42222,-7.726016 29.57293,-16.0934879 47.60699,-4.17411 l 10.07107,9.478656 c 3.8825,4.067897 -1.80895,6.200743 -3.35702,3.75197 -14.42854,-13.12431 -26.39479,-10.349575 -40.08683,-6.319107 -0.515,1.554348 -1.2796,3.251321 1.77724,2.764609 24.29369,-7.120171 43.85967,7.688348 47.19582,21.721921 1.17707,8.39055 -3.62693,7.632809 -5.92416,3.357027 -2.61414,-6.008836 -4.14739,-14.304087 -8.29381,-13.62557 0,0 -0.95397,3.197214 -4.73933,1.974719 -1.65041,-0.533007 -4.901,-6.815688 -10.26856,-7.306464 0.83121,2.892415 -15.32571,3.406861 -24.28906,3.159552 -0.91262,1.073637 -2.13774,2.199364 0,2.764609 22.96456,-5.6151 41.34391,1.077503 54.30481,22.314335 l 4.54185,11.058433 c 3.07837,12.377359 -2.98194,11.91306 -7.7014,5.924161 -6.19187,-8.815998 -11.63448,-18.381261 -18.75984,-26.263777 -0.71679,3.912729 -2.62004,3.079596 -4.34439,2.962078 -10.00078,-9.017264 -18.85627,-9.444864 -27.84356,-10.860959 -1.14774,1.217146 -2.4359,2.454355 0,3.159553 16.81643,4.017242 40.41074,12.042077 40.87672,48.578112 0.0658,4.723742 -5.39757,11.298922 -8.09636,2.962082 l 2.1722,-12.440737 c 0.94993,-1.952256 -0.71826,-3.952921 -1.97472,-2.96208 -1.91491,1.841156 -3.21754,1.641393 -3.55451,-1.777247 0.28098,-2.941205 -0.74461,-6.209051 -2.56713,-9.67613 -1.32286,4.803007 -3.78438,3.343341 -6.12164,2.567137 L 159.11424,65.003451 c 14.25343,22.479437 6.22883,34.532817 4.14691,38.309569 -2.3414,1.63794 -5.03064,2.83746 -5.52922,-0.98735 0.32805,-4.120802 0.57095,-7.231776 3.75197,-10.268552 2.09831,-3.773273 0.14492,-4.877646 -1.3823,-4.739328 -3.20972,0.847594 -2.50384,-6.91913 -3.35703,-11.255906 -3.32849,-0.178827 -3.21112,-2.080581 -2.36966,-4.344382 2.08645,-3.785642 -1.10602,-5.591685 -2.96208,-7.898882 l -3.94944,0.987359 c 7.50941,12.760062 9.38083,30.464696 8.29382,39.296931 -0.86727,3.37464 -4.91655,5.4485 -7.10899,0.19747 -0.18576,-11.848318 -4.36796,-23.69664 -7.50394,-35.544961 z"
     id="path6124"
     sodipodi:nodetypes="cccccccccccccccccccccccccccccccccccccccccccccccccccccccccccccccsccccccccccccccccccccccccccccc"
     inkscape:connector-curvature="0" />
  <path
     style="fill:none;stroke:#001c00;stroke-width:0.91909814;stroke-linecap:butt;stroke-linejoin:miter;stroke-miterlimit:4;stroke-opacity:1;stroke-dasharray:none"
     d="M 82.956218,81.635953 C 97.432649,54.960269 117.67457,54.850714 133.72097,49.207033 l -11.38802,11.763118 0,0 0,0"
     id="path7095"
     sodipodi:nodetypes="ccccc"
     inkscape:connector-curvature="0" />
  <path
     style="fill:none;stroke:#001c00;stroke-width:0.91909814;stroke-linecap:butt;stroke-linejoin:miter;stroke-miterlimit:4;stroke-opacity:1;stroke-dasharray:none"
     d="m 108.64884,57.077347 c -3.07195,3.62483 -5.15117,4.474339 -9.31457,10.282078"
     id="path7097"
     sodipodi:nodetypes="cc"
     inkscape:connector-curvature="0" />
  <path
     style="fill:none;stroke:#001c00;stroke-width:0.91909814;stroke-linecap:butt;stroke-linejoin:miter;stroke-miterlimit:4;stroke-opacity:1;stroke-dasharray:none"
     d="M 119.71857,77.246717 133.54161,49.5019 c 8.37169,8.826105 16.18926,20.596318 18.3649,38.901985"
     id="path7099"
     sodipodi:nodetypes="ccc"
     inkscape:connector-curvature="0" />
  <path
     style="fill:none;stroke:#001c00;stroke-width:0.91909814;stroke-linecap:butt;stroke-linejoin:miter;stroke-miterlimit:4;stroke-opacity:1;stroke-dasharray:none"
     d="m 146.0707,59.294545 c 2.29975,-9.964789 -5.75959,-9.282724 -12.57406,-9.88012 12.62879,-0.0973 19.09206,4.209345 20.6658,12.008507"
     id="path8070"
     sodipodi:nodetypes="ccc"
     inkscape:connector-curvature="0" />
  <path
     style="fill:none;stroke:#001c00;stroke-width:0.91909814;stroke-linecap:butt;stroke-linejoin:miter;stroke-miterlimit:4;stroke-opacity:1;stroke-dasharray:none"
     d="m 133.41895,49.200016 c 21.74132,1.596964 40.73167,15.401225 52.29783,33.232845"
     id="path8072"
     sodipodi:nodetypes="cc"
     inkscape:connector-curvature="0" />
  <path
     style="fill:none;stroke:#001c00;stroke-width:0.91909814;stroke-linecap:butt;stroke-linejoin:miter;stroke-miterlimit:4;stroke-opacity:1;stroke-dasharray:none"
     d="m 162.12858,58.875644 4.46829,9.913999"
     id="path9043"
     inkscape:connector-curvature="0" />
  <path
     style="fill:none;stroke:#001c00;stroke-width:0.91909814;stroke-linecap:butt;stroke-linejoin:miter;stroke-miterlimit:4;stroke-opacity:1;stroke-dasharray:none"
     d="m 169.11027,63.90246 3.49085,10.053634"
     id="path9045"
     inkscape:connector-curvature="0" />
  <path
     style="fill:none;stroke:#001c00;stroke-width:0.91909814;stroke-linecap:butt;stroke-linejoin:miter;stroke-miterlimit:4;stroke-opacity:1;stroke-dasharray:none"
     d="M 76.951963,60.830518 C 84.947356,52.346698 96.367627,48.74048 107.85339,48.912274"
     id="path10016"
     sodipodi:nodetypes="cc"
     inkscape:connector-curvature="0" />
  <path
     style="fill:none;stroke:#001c00;stroke-width:0.91909814;stroke-linecap:butt;stroke-linejoin:miter;stroke-miterlimit:4;stroke-opacity:1;stroke-dasharray:none"
     d="m 79.465373,23.967195 c 18.28748,-0.507353 36.265237,4.128717 52.223047,22.620676 13.78454,-21.323036 29.42978,-35.075737 55.43461,-23.737746"
     id="path10018"
     sodipodi:nodetypes="ccc"
     inkscape:connector-curvature="0" />
  <path
     style="fill:none;stroke:#001c00;stroke-width:0.91909814;stroke-linecap:butt;stroke-linejoin:miter;stroke-miterlimit:4;stroke-opacity:1;stroke-dasharray:none"
     d="M 75.978517,14.648089 C 87.087375,9.6034171 120.9285,-0.83279014 131.8631,46.24361 L 129.88838,6.7492084"
     id="path10989"
     sodipodi:nodetypes="ccc"
     inkscape:connector-curvature="0" />
  <path
     style="fill:none;stroke:#001c00;stroke-width:0.91909814;stroke-linecap:butt;stroke-linejoin:miter;stroke-miterlimit:4;stroke-opacity:1;stroke-dasharray:none"
     d="m 132.98598,8.7037301 -2.73945,5.3721419"
     id="path11960"
     sodipodi:nodetypes="cc"
     inkscape:connector-curvature="0" />
  <path
     style="fill:none;stroke:#001c00;stroke-width:0.91909814;stroke-linecap:butt;stroke-linejoin:miter;stroke-miterlimit:4;stroke-opacity:1;stroke-dasharray:none"
     d="m 135.01007,16.306401 -4.31922,6.507609"
     id="path11962"
     sodipodi:nodetypes="cc"
     inkscape:connector-curvature="0" />
  <path
     style="fill:none;stroke:#001c00;stroke-width:0.91909814;stroke-linecap:butt;stroke-linejoin:miter;stroke-miterlimit:4;stroke-opacity:1;stroke-dasharray:none"
     d="m 123.58185,7.1733211 c 2.84145,2.776811 4.8524,5.9095489 6.78763,9.0747429"
     id="path11964"
     sodipodi:nodetypes="cc"
     inkscape:connector-curvature="0" />
  <path
     style="fill:none;stroke:#001c00;stroke-width:0.91909814;stroke-linecap:butt;stroke-linejoin:miter;stroke-miterlimit:4;stroke-opacity:1;stroke-dasharray:none"
     d="m 130.11736,44.879237 c -4.50883,-3.667314 -9.5337,-2.174085 -14.38193,-2.447351"
     id="path11966"
     sodipodi:nodetypes="cc"
     inkscape:connector-curvature="0" />
  <path
     style="fill:none;stroke:#001c00;stroke-width:0.91909814;stroke-linecap:butt;stroke-linejoin:miter;stroke-miterlimit:4;stroke-opacity:1;stroke-dasharray:none"
     d="m 123.65929,38.560806 c -6.2834,-2.205446 -12.5668,-1.190269 -18.8502,-1.190649"
     id="path11968"
     sodipodi:nodetypes="cc"
     inkscape:connector-curvature="0" />
  <path
     style="fill:none;stroke:#001c00;stroke-width:0.91909814;stroke-linecap:butt;stroke-linejoin:miter;stroke-miterlimit:4;stroke-opacity:1;stroke-dasharray:none"
     d="M 116.39834,33.254722 C 110.02641,32.1669 103.57806,30.880353 98.106662,32.133891"
     id="path11970"
     sodipodi:nodetypes="cc"
     inkscape:connector-curvature="0" />
  <path
     style="fill:none;stroke:#001c00;stroke-width:0.91909814;stroke-linecap:butt;stroke-linejoin:miter;stroke-miterlimit:4;stroke-opacity:1;stroke-dasharray:none"
     d="M 90.775534,21.106583 98.59538,25.64092"
     id="path11972"
     sodipodi:nodetypes="cc"
     inkscape:connector-curvature="0" />
  <path
     style="fill:none;stroke:#001c00;stroke-width:0.91909814;stroke-linecap:butt;stroke-linejoin:miter;stroke-miterlimit:4;stroke-opacity:1;stroke-dasharray:none"
     d="m 95.523082,27.145743 9.216188,0.415138"
     id="path11974"
     sodipodi:nodetypes="cc"
     inkscape:connector-curvature="0" />
  <path
     style="fill:none;stroke:#001c00;stroke-width:0.91909814;stroke-linecap:butt;stroke-linejoin:miter;stroke-miterlimit:4;stroke-opacity:1;stroke-dasharray:none"
     d="m 149.55977,20.619461 c -1.58529,3.721592 -3.11058,7.45818 -6.14353,10.817858"
     id="path11976"
     sodipodi:nodetypes="cc"
     inkscape:connector-curvature="0" />
  <path
     style="fill:none;stroke:#001c00;stroke-width:0.91909814;stroke-linecap:butt;stroke-linejoin:miter;stroke-miterlimit:4;stroke-opacity:1;stroke-dasharray:none"
     d="m 137.55286,44.111251 c 16.91238,-12.374059 34.75393,-15.37895 53.899,-5.240029"
     id="path11978"
     sodipodi:nodetypes="cc"
     inkscape:connector-curvature="0" />
  <path
     style="fill:none;stroke:#001c00;stroke-width:0.91909814;stroke-linecap:butt;stroke-linejoin:miter;stroke-miterlimit:4;stroke-opacity:1;stroke-dasharray:none"
     d="M 144.53455,15.137237 C 148.42339,7.6076571 156.7557,3.8867662 171.06532,5.2892921"
     id="path11980"
     sodipodi:nodetypes="cc"
     inkscape:connector-curvature="0" />
  <path
     style="fill:none;stroke:#001c00;stroke-width:0.91909814;stroke-linecap:butt;stroke-linejoin:miter;stroke-miterlimit:4;stroke-opacity:1;stroke-dasharray:none"
     d="m 131.1297,31.893291 c 1.40448,-3.086886 2.83777,-5.972025 4.60827,-6.496729"
     id="path11982"
     sodipodi:nodetypes="cc"
     inkscape:connector-curvature="0" />
  <path
     style="fill:none;stroke:#001c00;stroke-width:0.91909814;stroke-linecap:butt;stroke-linejoin:miter;stroke-miterlimit:4;stroke-opacity:1;stroke-dasharray:none"
     d="m 140.90407,46.275576 c 33.25597,-6.033741 54.94624,4.238258 65.48861,30.226955"
     id="path11984"
     sodipodi:nodetypes="cc"
     inkscape:connector-curvature="0" />
  <path
     style="fill:none;stroke:#001c00;stroke-width:0.91909814;stroke-linecap:butt;stroke-linejoin:miter;stroke-miterlimit:4;stroke-opacity:1;stroke-dasharray:none"
     d="m 166.73632,45.158505 7.12167,7.047743"
     id="path11986"
     sodipodi:nodetypes="cc"
     inkscape:connector-curvature="0" />
  <path
     style="fill:none;stroke:#001c00;stroke-width:0.91909814;stroke-linecap:butt;stroke-linejoin:miter;stroke-miterlimit:4;stroke-opacity:1;stroke-dasharray:none"
     d="m 187.2625,52.279828 c 6.13097,7.465218 12.22439,14.963824 15.0808,25.339775"
     id="path11988"
     sodipodi:nodetypes="cc"
     inkscape:connector-curvature="0" />
  <path
     id="path2215"
     style="fill:#006c35;fill-opacity:1;fill-rule:evenodd;stroke:#471d00;stroke-width:0.91909814;stroke-linecap:butt;stroke-linejoin:miter;stroke-miterlimit:4;stroke-opacity:1"
     d="m 143.67321,71.262989 -3.55449,2.369665 -0.19748,4.739328 4.14692,0 -3.94944,4.146912 0,4.344386 4.73933,0.197472 -4.62366,4.320426 -0.10747,3.262247 3.9816,-0.0609 -3.94944,4.146903 0,4.344392 4.73933,0.19747 -4.62366,4.32043 -0.0541,5.41595 4.00728,0.13963 -3.94944,4.14692 0,4.34438 4.73933,0.19748 -4.62365,4.32042 -0.10748,3.26225 3.9816,-0.0609 -3.94944,4.14691 0,4.34439 4.73933,0.19747 -4.62365,4.32043 0.0578,4.02131 4.31137,-0.27721 -4.18901,5.30609 0,3.63048 4.46828,0.27926 -4.18901,4.60792 0,4.46828 4.46828,0.13964 -5.02682,5.58535 -0.13963,4.46828 4.46828,0 -4.46828,4.60792 0,4.32863 4.88718,-0.27926 -4.74755,6.42315 0.13963,5.16646 -5.81317,-0.0911 -6.60307,-0.12494 0.13963,-5.16645 -4.74754,-6.42316 4.88718,0.27926 0,-4.32863 -4.46828,-4.60792 4.46828,0 -0.13964,-4.46828 -5.02681,-5.58535 4.46828,-0.13964 0,-4.46828 -4.18901,-4.60791 4.46828,-0.27927 0,-3.63048 -4.18902,-5.30609 4.31138,0.27721 0.0578,-4.02131 -4.62366,-4.32043 4.73933,-0.19747 0,-4.34438 -3.94944,-4.14691 3.9816,0.0609 -0.10747,-3.26225 -4.62365,-4.32042 4.73932,-0.19748 0,-4.34438 -3.94944,-4.14691 4.00728,-0.13964 -0.0541,-5.41595 -4.62365,-4.32043 4.73933,-0.19747 0,-4.344382 -3.94944,-4.146912 3.9816,0.0609 -0.10748,-3.262245 -4.62365,-4.320429 4.73933,-0.197472 0,-4.344386 -3.94944,-4.146912 4.14691,0 -0.19747,-4.739327 -3.5545,-2.369665 c 0,0 3.59028,-7.02677 6.57031,-9.735669 2.07985,-1.890621 3.90974,-2.792676 6.49664,0.218306 2.5703,2.991672 5.74545,9.733391 5.74545,9.733391 z"
     sodipodi:nodetypes="cccccccccccccccccccccccccccccccccccccccccccccccccccccccccccccccccccccccccccccccccccccssc"
     inkscape:connector-curvature="0" />
  <path
     style="fill:#006c35;fill-opacity:1;fill-rule:evenodd;stroke:#001c00;stroke-width:0.91909814;stroke-linecap:butt;stroke-linejoin:miter;stroke-miterlimit:4;stroke-opacity:1;stroke-dasharray:none"
     d="m 116.36952,208.09254 39.4944,0 c -0.49557,-9.41088 6.8032,-15.57412 12.24326,-22.51182 -4.43796,3.31181 -11.0567,5.79942 -15.00787,12.63823 1.03383,-5.46342 2.12267,-5.59505 2.56714,-7.70142 -4.90988,1.68031 -6.37813,6.07441 -8.88624,9.67613 2.12198,-5.85945 3.08542,-12.0788 8.29382,-13.82303 -5.22589,0.10765 -8.38462,3.77538 -12.24326,9.47864 0.13651,-5.65843 3.15469,-11.25833 6.71405,-13.82303 -2.90118,0.51037 -10.71429,3.94918 -11.45338,13.42809 -1.69512,-4.87098 -0.42968,-9.74196 0.39494,-14.61292 -4.14339,3.30509 -5.26626,9.12729 -6.3191,15.00786 l -5.92416,-13.4281 0.78988,14.21799 c -4.21273,-6.45806 -7.24064,-9.91896 -10.26854,-11.45338 l 7.10899,12.63821 c -4.94142,-3.14107 -9.94229,-6.04434 -15.40282,-7.10898 3.73118,3.4575 8.22276,6.61081 9.47866,11.05842 -5.68486,-2.99209 -9.41444,-3.54005 -13.03315,-3.94944 4.34392,2.89672 9.22604,4.66282 11.45338,10.26855 z"
     id="path2213"
     sodipodi:nodetypes="cccccccccccccccccccc"
     inkscape:connector-curvature="0" />
</svg>
